<svg id="Capa_1" enable-background="new 0 0 512 512" height="512" viewBox="0 0 512 512" width="512" xmlns="http://www.w3.org/2000/svg"><g><g><g><path d="m273.243 386.808v61.659h184.117c17.03 0 30.835-13.803 30.835-30.83 0-17.027-13.805-30.83-30.835-30.83h-184.117z" fill="#ffd0c7"/></g><path d="m420.821 486.304h51.667c16.299 0 29.513-13.211 29.513-29.508 0-16.297-13.213-29.508-29.513-29.508h-178.368l-10.472-9.861c9.33 1.84 19.378-.854 26.607-8.082 11.525-11.523 11.525-30.207 0-41.73l-93.067-93.051c-16.716-16.713-43.954-16.264-60.11.992-7.254 7.748-11.29 17.964-11.29 28.577v11.66h-41.293v81.109h47.565l79.289 72.639c11.769 10.782 27.151 16.762 43.113 16.762h56.117" fill="#ffdcd5"/><path d="m10 305.963h94.496v100.771h-94.496z" fill="#d0f2d2"/><path d="m500.219 220.641c0-87.11-113.675-194.944-113.675-194.944s-113.673 107.557-113.673 194.944c0 62.781 50.893 113.675 113.673 113.675 62.781 0 113.675-50.895 113.675-113.675z" fill="#ff5d7d"/><path d="m388.819 183.634-2.274 2.274-2.274-2.274c-12.482-12.482-32.718-12.482-45.2 0-12.482 12.482-12.482 32.719 0 45.2l44.102 44.102c1.863 1.863 4.883 1.863 6.745 0l44.102-44.102c12.482-12.482 12.482-32.718 0-45.2-12.482-12.482-32.719-12.482-45.201 0z" fill="#faf7f5"/></g><g><g><g><path d="m497.319 426.086c.582-2.761.876-5.585.876-8.448 0-22.514-18.318-40.829-40.834-40.829h-130.205c-1.87-6.076-5.206-11.642-9.83-16.265l-93.067-93.051c-10.017-10.017-23.329-15.428-37.5-15.17-14.165.233-27.298 6.058-36.979 16.399-9.022 9.636-13.99 22.212-13.99 35.411v1.66h-21.296c-.09-5.444-4.532-9.831-9.998-9.831h-94.496c-5.523 0-10 4.478-10 10v100.771c0 5.522 4.477 10 10 10h94.496c5.466 0 9.908-4.387 9.998-9.831h33.679l76.421 70.012c13.648 12.504 31.358 19.39 49.869 19.39h56.117c5.523 0 10-4.477 10-10 0-5.522-4.477-10-10-10h-56.117c-13.496 0-26.408-5.02-36.358-14.136l-79.289-72.639c-1.844-1.69-4.254-2.627-6.755-2.627h-37.565v-61.108h31.293c5.523 0 10-4.478 10-10v-11.66c0-8.104 3.051-15.826 8.59-21.743 5.945-6.35 14.01-9.927 22.71-10.07 8.712-.146 16.877 3.165 23.029 9.315l93.067 93.052c3.685 3.684 5.715 8.583 5.715 13.793s-2.03 10.109-5.715 13.794c-3.954 3.954-9.359 5.986-14.863 5.685l-80.076-80.062c-3.905-3.906-10.237-3.905-14.142.001-3.905 3.905-3.904 10.237.001 14.142l93.16 92.528c1.855 1.747 4.307 2.72 6.855 2.72h178.367c10.759 0 19.513 8.751 19.513 19.508s-8.753 19.508-19.513 19.508h-51.667c-5.523 0-10 4.478-10 10 0 5.523 4.477 10 10 10h51.667c21.788 0 39.513-17.723 39.513-39.508 0-12.389-5.731-23.462-14.681-30.711zm-477.319-110.123h74.496v80.771h-74.496zm296.428 101.325c.304-.285.603-.575.898-.87 5.46-5.459 9.125-12.234 10.7-19.609h129.334c11.488 0 20.834 9.344 20.834 20.829v.062c-1.864-.271-3.769-.412-5.707-.412z"/><path d="m384.75 482.479c-1.616-3.938-5.706-6.454-9.949-6.147-4.15.3-7.751 3.229-8.896 7.224-1.151 4.016.395 8.445 3.793 10.875 3.352 2.397 7.94 2.466 11.372.189 3.921-2.602 5.485-7.804 3.68-12.141z"/><path d="m386.544 344.315c68.195 0 123.675-55.48 123.675-123.675 0-90.369-112.024-197.676-116.793-202.199-3.854-3.656-9.896-3.66-13.755-.009-4.769 4.513-116.8 111.559-116.8 202.208 0 68.195 55.479 123.675 123.673 123.675zm-.008-304.518c24.166 24.666 103.683 111.142 103.683 180.844 0 57.166-46.509 103.675-103.675 103.675s-103.673-46.509-103.673-103.675c0-69.918 79.49-156.219 103.665-180.844z"/><path d="m376.101 280.008c2.879 2.879 6.661 4.318 10.443 4.318s7.564-1.44 10.444-4.318l44.102-44.102c16.36-16.36 16.36-42.981 0-59.343-14.844-14.843-38.135-16.22-54.545-4.127-16.411-12.096-39.701-10.718-54.546 4.128-16.36 16.36-16.36 42.981 0 59.342zm-29.96-89.303c4.282-4.282 9.905-6.422 15.529-6.422s11.248 2.141 15.529 6.422l2.274 2.274c3.905 3.904 10.237 3.904 14.143 0l2.274-2.274c8.562-8.564 22.495-8.564 31.058-.001 8.563 8.564 8.563 22.496 0 31.059l-40.403 40.404-40.403-40.404c-8.563-8.563-8.563-22.496-.001-31.058z"/></g></g></g></g></svg>